<svg width="16" height="14" viewBox="0 0 16 14" fill="none" xmlns="http://www.w3.org/2000/svg">
<path fill-rule="evenodd" clip-rule="evenodd" d="M8.17402 12.9025C6.72695 12.0119 5.38076 10.9638 4.15954 9.77678C3.30097 8.92196 2.64735 7.87985 2.24875 6.73026C1.53144 4.5002 2.3693 1.94722 4.71409 1.19168C5.94642 0.794957 7.29231 1.0217 8.33074 1.80098C9.36957 1.02265 10.715 0.795985 11.9474 1.19168C14.2922 1.94722 15.1361 4.5002 14.4188 6.73026C14.0202 7.87985 13.3665 8.92196 12.508 9.77678C11.2868 10.9638 9.94057 12.0119 8.49349 12.9025L8.33677 13L8.17402 12.9025Z" />
<path fill-rule="evenodd" clip-rule="evenodd" d="M7.84068 12.9025C6.3936 12.0119 5.04741 10.9638 3.8262 9.77678C2.96763 8.92196 2.31401 7.87985 1.9154 6.73026C1.1981 4.5002 2.03596 1.94722 4.38075 1.19168C5.61308 0.794957 6.95897 1.0217 7.9974 1.80098C9.03623 1.02265 10.3816 0.795985 11.614 1.19168C13.9588 1.94722 14.8027 4.5002 14.0854 6.73026C13.6868 7.87985 13.0332 8.92196 12.1746 9.77678C10.9534 10.9638 9.60722 12.0119 8.16015 12.9025L8.00343 13L7.84068 12.9025Z" />
<path d="M10.4929 3.70201C11.2031 3.92888 11.7077 4.56648 11.7708 5.31667" stroke="white" stroke-width="1.5" stroke-linecap="round" stroke-linejoin="round"/>
<path fill-rule="evenodd" clip-rule="evenodd" d="M7.84068 12.9025C6.3936 12.0119 5.04741 10.9638 3.8262 9.77678C2.96763 8.92196 2.31401 7.87985 1.9154 6.73026C1.1981 4.5002 2.03596 1.94722 4.38075 1.19168C5.61308 0.794957 6.95897 1.0217 7.9974 1.80098C9.03623 1.02265 10.3816 0.795985 11.614 1.19168C13.9588 1.94722 14.8027 4.5002 14.0854 6.73026C13.6868 7.87985 13.0332 8.92196 12.1746 9.77678C10.9534 10.9638 9.60722 12.0119 8.16015 12.9025L8.00343 13L7.84068 12.9025Z"  stroke-width="1.5" stroke-linecap="round" stroke-linejoin="round"/>
</svg>
