<svg width="16" height="16" viewBox="0 0 16 16" fill="none" xmlns="http://www.w3.org/2000/svg">
<path d="M2.76291 12.101C2.981 12.3191 3.26197 12.4358 3.54748 12.4516C3.54811 12.4631 3.54919 12.4746 3.55015 12.4861C3.57312 12.7596 3.6888 13.0269 3.89811 13.2362C4.36834 13.7064 5.13071 13.7064 5.60093 13.2362C6.07115 12.766 6.07115 12.0036 5.49819 11.4306L6.64197 10.2892C6.46255 10.1828 6.29464 10.0544 6.1419 9.9052C5.973 9.74023 5.82928 9.55672 5.71234 9.35931L4.56842 10.5009C3.99546 9.92795 3.23309 9.92795 2.76286 10.3982C2.29268 10.8684 2.29268 11.6308 2.76291 12.101Z" fill="#D1D1D1"/>
<path d="M9.37426 9.41826C9.3825 9.41267 9.74731 9.00014 10.3811 8.9854C11.2112 8.96609 11.9964 8.63728 12.5921 8.05954C13.8988 6.79226 13.9244 4.68881 12.6452 3.39153C11.3645 2.09264 9.27123 2.08311 7.97953 3.37479C7.38013 3.97415 7.03857 4.77078 7.01779 5.61796C7.00177 6.26944 6.5926 6.6174 6.58482 6.62895C5.81797 7.39572 5.8049 8.65604 6.60194 9.43454C7.37371 10.1884 8.60843 10.184 9.37426 9.41826Z" fill="#D1D1D1"/>
</svg>
